<?xml version="1.0" standalone="no"?>
<!DOCTYPE svg PUBLIC "-//W3C//DTD SVG 20010904//EN"
 "http://www.w3.org/TR/2001/REC-SVG-20010904/DTD/svg10.dtd">
<svg version="1.0" xmlns="http://www.w3.org/2000/svg"
 width="500.000000pt" height="500.000000pt" viewBox="0 0 500.000000 500.000000"
 preserveAspectRatio="xMidYMid meet">

<g transform="translate(0.000000,500.000000) scale(0.100000,-0.100000)"
fill="#000000" stroke="none">
<path d="M2385 4723 c-382 -11 -789 -141 -1125 -361 -340 -222 -596 -512 -775
-877 -164 -332 -229 -618 -228 -990 0 -218 17 -350 69 -553 249 -974 1138
-1662 2149 -1662 349 0 670 75 985 231 482 239 858 638 1063 1129 122 292 170
535 170 865 0 372 -64 648 -228 980 -181 367 -430 650 -770 875 -386 255 -825
376 -1310 363z m455 -163 c1136 -211 1889 -1283 1694 -2413 -35 -207 -86 -361
-184 -562 -112 -229 -238 -403 -423 -582 -321 -311 -690 -494 -1147 -569 -145
-24 -465 -24 -610 0 -607 99 -1108 420 -1444 926 -242 364 -369 845 -336 1276
51 671 389 1250 945 1617 241 159 563 281 835 316 47 6 99 13 115 15 17 3 122
3 235 1 155 -3 233 -9 320 -25z"/>
<path d="M2295 4501 c-512 -45 -1012 -304 -1344 -694 -238 -282 -385 -598
-457 -988 -25 -132 -25 -484 -1 -624 113 -660 509 -1202 1090 -1489 286 -141
567 -207 892 -207 401 0 769 109 1098 324 411 269 723 703 843 1175 50 197 58
265 58 502 0 233 -8 307 -55 495 -194 777 -845 1367 -1644 1491 -112 17 -361
25 -480 15z m460 -77 c569 -78 1095 -430 1392 -932 337 -571 362 -1264 66
-1857 -260 -519 -740 -898 -1306 -1029 -257 -60 -607 -60 -864 0 -753 175
-1338 784 -1477 1539 -38 205 -44 377 -22 570 44 364 163 664 379 953 290 389
727 659 1207 748 185 33 416 37 625 8z"/>
<path d="M2564 4230 c-6 -27 -7 -50 -2 -50 4 0 8 5 8 10 0 22 41 50 73 50 67
0 75 -7 66 -53 -4 -23 -17 -105 -29 -182 -22 -145 -34 -171 -72 -159 -10 3
-18 1 -18 -5 0 -6 3 -11 8 -11 11 0 134 -20 160 -25 30 -7 28 11 -3 19 -36 9
-35 32 21 364 5 32 6 32 42 26 53 -9 82 -30 89 -66 5 -28 7 -29 14 -13 10 26
11 95 2 95 -5 0 -80 11 -168 25 -88 13 -165 25 -171 25 -5 0 -15 -22 -20 -50z"/>
<path d="M2055 4241 c-109 -27 -170 -108 -169 -223 1 -55 7 -76 31 -120 62
-110 190 -147 295 -85 165 97 130 367 -55 422 -55 16 -58 16 -102 6z m68 -30
c89 -34 156 -231 112 -325 -23 -47 -68 -76 -119 -76 -59 0 -117 62 -146 158
-36 120 -17 195 61 234 39 20 57 22 92 9z"/>
<path d="M1575 4044 c-66 -41 -135 -83 -153 -94 -32 -19 -32 -21 -18 -47 8
-16 21 -37 29 -47 13 -17 14 -15 13 24 -1 41 2 46 43 74 25 16 46 25 48 19 2
-5 44 -76 93 -157 50 -81 90 -155 90 -165 0 -10 -7 -24 -15 -31 -36 -30 -1
-19 64 20 83 50 94 61 49 54 l-33 -6 -98 163 c-75 124 -95 164 -85 171 63 42
96 47 123 18 32 -36 36 -10 5 36 -17 24 -32 44 -33 43 -1 -1 -56 -35 -122 -75z"/>
<path d="M3116 4095 c-75 -26 -142 -116 -153 -203 -11 -94 36 -178 121 -218
28 -13 69 -24 91 -24 121 0 228 116 229 247 0 86 -37 147 -113 186 -61 30
-114 34 -175 12z m165 -37 c77 -43 86 -121 28 -237 -35 -70 -95 -127 -142
-136 -50 -10 -114 25 -134 72 -36 87 41 256 142 311 31 17 63 14 106 -10z"/>
<path d="M3638 3848 c31 -31 13 -55 -127 -172 -76 -64 -145 -116 -152 -116 -7
0 -21 7 -31 17 -34 30 -18 -2 29 -59 49 -61 62 -68 41 -23 -12 26 -10 30 38
74 72 66 208 177 203 165 -5 -10 -22 -46 -112 -236 -31 -65 -53 -119 -49 -122
4 -2 86 18 182 45 96 27 179 48 183 46 13 -4 -223 -197 -241 -197 -8 0 -24 8
-35 18 -34 30 -14 -4 42 -72 30 -36 59 -66 65 -66 6 0 5 5 -2 12 -32 32 -14
56 126 173 75 63 145 115 154 115 9 0 23 -7 32 -15 8 -8 17 -12 19 -8 3 5 -14
29 -37 54 l-41 47 -175 -48 c-96 -27 -176 -47 -178 -46 -2 2 31 77 72 165 42
89 76 166 76 170 0 13 -71 91 -83 91 -8 0 -7 -4 1 -12z"/>
<path d="M1226 3784 c-27 -30 -46 -57 -43 -61 4 -3 16 2 26 11 13 12 25 15 34
9 27 -15 207 -177 207 -186 0 -5 -12 -6 -27 -3 -16 3 -109 8 -208 12 l-181 6
-37 -46 c-42 -51 -42 -53 -1 -31 16 8 36 15 45 15 19 0 259 -212 273 -241 7
-15 2 -28 -21 -56 -16 -21 -41 -41 -54 -44 -13 -4 -120 -7 -236 -8 -117 -1
-213 -4 -213 -8 0 -4 75 -82 166 -174 135 -137 164 -172 159 -189 -3 -11 -2
-20 3 -20 10 0 64 121 57 128 -2 3 -13 -5 -23 -18 -21 -26 -39 -21 -86 29
l-29 30 33 81 34 80 52 0 c54 0 81 -17 70 -45 -3 -8 -2 -15 3 -15 5 0 23 37
41 83 24 60 46 96 81 132 27 28 49 57 49 64 0 11 -4 10 -18 -2 -10 -10 -24
-17 -30 -17 -13 0 -225 186 -231 202 -2 6 0 8 5 6 5 -3 92 -9 194 -12 102 -4
200 -9 218 -13 18 -3 32 -1 32 5 0 5 -67 71 -150 146 -142 129 -168 164 -140
181 12 7 14 26 3 24 -5 -1 -30 -25 -57 -55z m-161 -705 c-14 -44 -46 -109 -54
-109 -6 0 -121 119 -121 126 0 1 41 2 91 3 88 2 90 1 84 -20z"/>
<path d="M2325 3733 c-11 -2 -55 -10 -97 -19 -427 -82 -790 -399 -928 -811
-30 -91 -60 -226 -60 -273 0 -20 -17 -40 -72 -84 -39 -33 -68 -50 -63 -40 40
96 42 122 16 180 -13 28 -30 46 -56 58 -68 32 -114 8 -190 -99 -48 -67 -88
-105 -110 -105 -28 0 -65 40 -65 69 0 55 64 121 119 121 47 0 9 14 -57 21 -73
8 -92 4 -67 -15 15 -10 14 -15 -4 -56 -34 -75 -22 -134 35 -179 61 -48 121
-21 204 94 63 87 86 103 134 91 30 -7 50 -55 42 -100 -9 -46 -45 -82 -97 -97
-37 -10 -41 -13 -24 -20 11 -4 33 -8 49 -8 l30 -1 -35 -26 c-19 -14 -33 -29
-32 -34 5 -18 183 -298 269 -425 120 -175 334 -455 348 -455 6 0 17 4 25 9 9
6 31 -5 72 -39 77 -61 203 -133 305 -171 73 -28 84 -36 105 -73 12 -22 62 -81
111 -130 81 -81 91 -88 118 -82 17 3 95 37 173 75 172 85 327 138 428 147 40
4 91 15 111 25 21 11 53 19 72 19 84 0 247 81 317 158 89 97 126 200 139 383
8 107 14 136 41 194 56 123 71 202 76 396 6 200 -7 306 -57 458 -97 298 -316
557 -600 710 -94 50 -258 105 -375 125 -82 15 -299 20 -350 9z m425 -62 c243
-65 408 -158 575 -326 200 -199 308 -421 342 -702 15 -124 15 -140 -1 -255 -9
-68 -21 -127 -25 -131 -5 -5 -18 6 -29 25 -18 29 -19 40 -10 93 16 94 3 336
-22 425 -48 173 -98 273 -198 406 -159 209 -402 362 -662 416 -112 24 -337 28
-440 9 -241 -46 -449 -159 -619 -336 -134 -141 -234 -318 -276 -491 -19 -79
-19 -79 -59 -114 l-29 -25 7 50 c12 85 66 246 114 339 172 334 505 577 872
636 95 15 374 4 460 -19z m-23 -243 c57 -21 109 -72 119 -116 3 -15 12 -47 20
-71 8 -25 14 -54 14 -67 0 -20 -4 -21 -47 -17 -27 3 -61 14 -77 25 -23 16 -33
18 -47 10 -14 -9 -18 -7 -22 9 -8 29 -27 23 -27 -10 0 -38 -20 -54 -52 -42
-14 5 -28 17 -32 26 -4 11 -12 14 -27 10 -19 -7 -20 -4 -18 67 1 41 -2 71 -7
69 -5 -2 -15 -6 -22 -8 -7 -3 -21 2 -31 11 -17 15 -27 16 -77 7 -31 -6 -59 -9
-61 -7 -10 9 67 72 115 94 95 43 180 46 279 10z m-241 -214 c-3 -9 -6 -20 -6
-25 0 -5 -4 -9 -10 -9 -11 0 -14 33 -3 43 12 13 25 7 19 -9z m700 8 c6 -4 16
-23 23 -42 6 -20 32 -53 59 -77 l47 -41 -43 -40 c-25 -23 -50 -38 -58 -35 -8
3 -76 -30 -151 -73 -252 -143 -434 -225 -523 -236 -14 -2 -25 -9 -25 -18 0
-12 11 -14 50 -12 73 3 124 23 276 106 145 79 194 99 300 121 41 9 78 24 93
37 14 13 40 35 59 50 l34 27 23 -24 23 -24 -52 -7 c-28 -3 -58 -12 -68 -19
-14 -11 -6 -14 56 -25 66 -11 79 -17 123 -59 66 -61 118 -142 118 -184 0 -18
7 -42 15 -55 14 -19 14 -24 -1 -47 -17 -26 -16 -101 2 -165 4 -14 -16 10 -45
53 -54 79 -81 103 -107 93 -28 -11 19 -96 52 -96 7 0 22 -19 33 -42 10 -24 40
-70 65 -103 25 -33 46 -63 46 -67 0 -11 -18 -10 -25 2 -3 6 -27 10 -53 10 -39
0 -49 4 -57 23 -7 16 -17 21 -36 19 -14 -2 -58 13 -99 33 -86 41 -119 40 -249
-2 -63 -20 -87 -22 -146 -17 -57 5 -92 2 -171 -17 -54 -13 -132 -23 -171 -24
-65 0 -75 3 -96 25 -13 14 -46 40 -74 59 -48 33 -60 51 -91 146 -2 5 13 -7 33
-27 20 -21 43 -38 51 -38 18 0 19 -4 -21 84 -24 52 -30 76 -21 76 17 0 39 -26
64 -76 25 -50 44 -59 83 -39 38 20 37 31 -10 54 -21 11 -41 29 -44 41 -5 19
-1 20 73 20 46 0 92 6 113 15 21 9 48 12 66 9 27 -6 31 -4 31 15 0 18 6 21 43
21 34 0 55 8 88 32 69 50 128 68 222 68 92 0 206 -23 223 -45 12 -16 97 -55
119 -55 8 0 19 -17 25 -39 13 -50 32 -66 59 -51 25 13 26 18 6 40 -9 10 -24
47 -34 83 -35 126 -65 148 -163 117 -92 -29 -140 -25 -131 10 14 54 -105 48
-207 -9 -153 -87 -324 -143 -475 -157 -58 -5 -73 -4 -84 10 -7 9 -10 16 -5 16
5 0 2 5 -6 10 -13 9 -11 13 9 29 19 15 29 16 42 8 37 -23 203 38 409 152 109
60 129 75 162 122 21 30 50 87 64 128 23 62 26 76 15 93 -10 17 -10 22 1 29
16 11 30 11 44 1z m-761 -72 c28 -16 60 -30 73 -30 12 0 25 -7 28 -15 4 -8 29
-26 57 -40 46 -21 52 -29 62 -67 9 -36 14 -43 33 -41 12 2 22 -2 22 -7 0 -6
-4 -10 -10 -10 -5 0 -10 -9 -10 -20 0 -11 4 -20 8 -20 13 0 47 41 60 73 6 15
17 27 23 27 7 0 9 13 4 39 -4 24 -2 42 4 46 6 3 11 15 11 26 0 16 7 19 41 19
41 0 41 0 34 -32 -10 -45 -13 -48 -41 -48 -17 0 -24 -6 -24 -19 0 -24 18 -38
55 -43 21 -2 35 -13 49 -37 l19 -33 -24 -19 c-54 -41 -209 -119 -284 -143 -44
-14 -92 -30 -107 -35 -37 -12 -72 7 -76 42 -2 16 -10 31 -18 34 -20 8 -17 20
7 26 31 8 13 27 -27 27 -19 0 -34 5 -34 10 0 6 9 10 21 10 18 0 20 4 14 27 -3
15 -11 30 -16 34 -10 6 1 40 23 71 18 25 -6 48 -52 48 -34 0 -38 3 -48 39 -13
43 -15 74 -5 84 16 17 81 5 128 -23z m283 -68 c2 -23 -1 -50 -7 -59 -8 -14
-10 -8 -8 27 0 25 -3 53 -8 64 -6 14 -5 18 6 14 8 -3 15 -21 17 -46z m375 17
c-9 -9 -12 -7 -10 9 1 14 5 18 11 12 7 -7 6 -14 -1 -21z m-98 -14 c-39 -32
-58 -32 -22 0 15 14 33 25 40 25 7 0 -1 -11 -18 -25z m-637 -131 c28 -44 28
-48 -3 -62 -24 -11 -25 -10 -25 21 0 17 -3 42 -6 55 -9 33 8 26 34 -14z m602
26 c0 -5 -4 -10 -10 -10 -5 0 -10 5 -10 10 0 6 5 10 10 10 6 0 10 -4 10 -10z
m-1310 -154 c0 -2 -8 -10 -17 -17 -16 -13 -17 -12 -4 4 13 16 21 21 21 13z
m119 -86 c25 -44 43 -90 47 -122 l7 -50 -54 -49 c-51 -46 -52 -49 -24 -43 17
4 40 13 52 20 30 19 34 9 37 -89 3 -93 32 -163 74 -182 34 -15 37 -42 8 -85
-26 -40 -35 -90 -16 -90 6 0 10 -6 10 -14 0 -8 8 -22 17 -31 16 -16 15 -18 -2
-28 -60 -33 -94 -109 -77 -170 9 -32 6 -36 -67 -115 -43 -45 -82 -82 -88 -82
-15 0 -111 144 -249 375 -116 194 -167 260 -258 332 l-39 31 64 32 c137 69
269 171 269 207 0 28 18 9 95 -104 110 -160 191 -293 238 -391 25 -52 48 -87
61 -92 12 -4 22 -6 24 -5 7 6 -42 92 -108 189 -37 56 -100 157 -140 226 -40
69 -86 144 -102 167 -15 23 -28 44 -28 46 0 3 29 19 65 36 70 32 85 53 100
133 6 32 10 36 25 28 10 -5 36 -41 59 -80z m-142 2 c-9 -10 -36 -29 -59 -41
-48 -27 -42 -17 17 28 45 34 67 41 42 13z m706 -1 c44 -1 41 -21 -3 -21 -16 0
-66 -12 -112 -27 -68 -22 -198 -39 -198 -25 0 2 26 15 58 30 57 26 159 50 197
47 11 -2 37 -3 58 -4z m-409 -108 c-12 -2 -32 -15 -45 -29 -23 -25 -39 -31
-39 -15 0 14 63 51 85 49 19 -1 18 -1 -1 -5z m121 -63 c18 -20 18 -36 -1 -197
-6 -47 -4 -55 17 -73 32 -26 53 -21 59 15 l6 30 14 -25 c16 -30 15 -136 -1
-157 -17 -20 -3 -200 17 -231 20 -31 13 -37 -23 -19 -76 40 -91 110 -48 222
15 39 27 79 28 89 3 33 -21 29 -39 -6 -23 -45 -21 -44 -49 -18 -14 13 -25 35
-25 49 0 17 -13 39 -40 63 -33 31 -40 46 -46 89 -6 42 -14 59 -46 91 -21 21
-36 43 -33 47 8 14 50 -1 82 -29 62 -55 67 -57 59 -34 -5 16 0 22 28 32 35 13
35 13 16 32 -11 11 -17 26 -14 35 8 20 17 19 39 -5z m-726 -44 c-50 -44 -240
-178 -245 -173 -4 4 253 194 266 196 3 0 -7 -10 -21 -23z m1001 -176 c0 -5 -4
-10 -10 -10 -5 0 -10 5 -10 10 0 6 5 10 10 10 6 0 10 -4 10 -10z m-101 -62
c-1 -13 -5 -34 -9 -48 -7 -20 -8 -16 -9 23 -1 26 4 47 9 47 6 0 10 -10 9 -22z
m179 -39 c-6 -16 -12 -28 -15 -26 -7 7 8 57 18 57 4 0 3 -14 -3 -31z m-1148
-61 c0 -17 -23 -3 -49 32 l-26 34 38 -28 c20 -16 37 -33 37 -38z m1030 40 c0
-13 -5 -30 -10 -38 -7 -11 -10 -5 -10 23 0 20 5 37 10 37 6 0 10 -10 10 -22z
m670 4 c0 -5 -9 -17 -20 -27 -23 -21 -26 -14 -8 15 13 20 28 27 28 12z m140
-19 c0 -13 -81 -113 -101 -124 -26 -13 -34 -6 -20 19 6 11 7 22 4 26 -16 15
-36 2 -70 -45 -32 -45 -96 -89 -109 -76 -10 10 10 37 37 49 16 7 29 16 29 20
0 3 35 36 77 72 65 56 82 66 115 66 21 0 38 -3 38 -7z m-1833 -140 c49 -65
132 -183 185 -263 53 -80 117 -167 142 -194 50 -54 61 -73 20 -35 -36 33 -146
179 -301 399 -139 198 -147 210 -140 210 3 0 45 -53 94 -117z m1137 108 c3 -4
-1 -17 -9 -27 -14 -18 -14 -18 -15 9 0 26 13 36 24 18z m916 -7 l40 -16 -3
-89 c-1 -66 -5 -88 -14 -84 -17 6 -38 -28 -57 -95 -20 -73 -56 -108 -94 -94
-15 5 -47 7 -72 3 -35 -6 -63 -1 -130 21 -95 31 -180 46 -180 32 0 -10 49 -30
140 -57 30 -9 107 -19 171 -22 116 -6 116 -6 176 26 86 46 97 70 103 216 5
111 6 120 25 120 14 0 24 -13 38 -50 10 -27 29 -61 43 -76 31 -33 30 -62 -6
-129 -33 -60 -39 -110 -15 -110 8 0 15 -3 15 -7 0 -14 -34 -43 -51 -43 -23 0
-116 -104 -141 -158 -11 -24 -27 -46 -35 -49 -9 -4 -84 2 -168 12 -83 10 -157
16 -165 13 -17 -6 -18 -6 58 -29 49 -14 80 -34 70 -44 -4 -4 -64 -11 -134 -16
-94 -7 -130 -6 -135 2 -10 16 -140 5 -176 -15 -75 -41 -68 -41 -115 -5 -66 50
-102 111 -109 187 -5 60 -23 92 -41 74 -4 -4 -2 -54 4 -111 11 -103 12 -104
52 -143 23 -22 53 -42 68 -45 15 -3 29 -11 32 -19 4 -9 15 -12 36 -7 23 4 30
2 28 -8 -2 -10 7 -13 33 -11 21 2 40 -1 44 -7 4 -7 -5 -11 -25 -11 -53 0 -97
-25 -119 -69 -12 -22 -26 -43 -32 -47 -8 -5 -9 -3 -3 7 4 8 10 32 11 54 3 31
-3 51 -26 88 -17 26 -35 47 -41 47 -6 0 -8 -23 -6 -57 3 -43 9 -59 20 -61 19
-4 19 -2 0 -41 -9 -17 -21 -53 -27 -79 -9 -36 -16 -47 -32 -47 -24 0 -36 24
-70 140 -43 150 -52 268 -31 423 10 72 15 143 12 157 -13 53 44 13 84 -59 17
-29 42 -58 57 -65 36 -17 51 1 19 23 -15 9 -26 26 -26 39 0 12 -14 39 -31 60
-18 21 -24 34 -14 31 16 -7 167 -198 178 -227 10 -26 47 -22 47 6 0 12 4 28 8
35 13 19 63 -39 60 -69 -3 -21 6 -29 65 -57 82 -40 121 -46 124 -17 2 15 -15
30 -73 65 -43 25 -94 66 -116 92 -22 25 -53 52 -68 58 -16 7 -55 41 -88 76
-40 44 -69 66 -90 70 -31 6 -45 24 -19 24 7 0 59 -18 116 -39 93 -36 131 -42
131 -22 0 4 -24 18 -52 31 l-53 24 37 3 c23 3 64 -6 108 -21 89 -32 105 -33
90 -6 -10 18 -8 20 23 20 19 0 53 -7 76 -15 30 -10 49 -12 67 -5 35 14 161 12
187 -1 12 -7 30 -20 40 -31 23 -24 51 -20 55 8 3 24 -39 64 -69 64 -10 0 -20
4 -24 9 -3 5 -50 13 -105 17 -105 7 -133 17 -76 28 41 8 129 65 216 140 70 60
88 65 150 40z m-798 -47 c-19 -52 -32 -61 -32 -20 0 22 37 79 46 70 2 -1 -5
-24 -14 -50z m178 22 c-7 -11 -14 -19 -16 -16 -7 7 7 37 17 37 6 0 5 -9 -1
-21z m874 5 c9 -24 7 -28 -9 -14 -17 14 -20 30 -6 30 5 0 12 -7 15 -16z m-979
-43 c-4 -17 -10 -31 -15 -31 -5 0 -4 15 1 32 5 18 9 35 9 37 0 2 3 2 6 -2 3
-3 3 -19 -1 -36z m-1233 -51 c43 -54 231 -361 225 -367 -3 -2 -42 55 -88 127
-46 72 -108 167 -136 211 -72 110 -73 120 -1 29z m928 34 c0 -8 -4 -14 -10
-14 -5 0 -10 9 -10 21 0 11 5 17 10 14 6 -3 10 -13 10 -21z m75 -26 c-9 -44
-25 -60 -25 -26 0 33 9 58 22 58 6 0 7 -13 3 -32z m64 -47 c-6 -34 -16 -61
-20 -61 -12 0 -11 30 2 71 6 19 13 40 15 48 3 8 7 11 10 8 3 -3 0 -32 -7 -66z
m1150 -115 c-9 -8 -10 2 -5 44 3 30 7 64 8 75 1 11 3 -9 5 -44 3 -41 0 -68 -8
-75z m-1306 30 c11 -20 17 -40 13 -43 -11 -12 -56 40 -56 65 0 33 20 23 43
-22z m1079 -18 c-7 -7 -12 -8 -12 -2 0 14 12 26 19 19 2 -3 -1 -11 -7 -17z
m-1287 -19 c4 -6 5 -12 3 -14 -7 -7 -48 7 -48 16 0 13 37 11 45 -2z m15 -44
c111 -2 103 1 128 -44 23 -41 28 -91 12 -120 -14 -27 -101 -35 -169 -17 -64
18 -81 31 -28 23 62 -10 46 33 -18 47 -32 7 -72 33 -64 41 3 2 22 0 42 -6 25
-6 43 -7 55 0 18 10 10 15 -92 52 -22 8 -41 20 -44 28 -4 11 5 12 44 6 27 -5
87 -9 134 -10z m1455 -249 c-18 -27 -85 -82 -85 -69 0 10 93 104 98 99 2 -3
-4 -16 -13 -30z m-1432 4 c9 0 17 -4 17 -10 0 -6 -18 -7 -44 -4 -45 7 -66 -6
-48 -29 11 -13 21 -127 11 -127 -8 0 -38 96 -41 134 -2 24 2 31 22 37 14 4 34
6 45 3 11 -2 28 -4 38 -4z m92 0 c3 -5 -1 -10 -10 -10 -9 0 -13 5 -10 10 3 6
8 10 10 10 2 0 7 -4 10 -10z m-249 -148 c36 -18 57 -35 68 -59 16 -34 16 -34
-6 -28 -13 4 -39 16 -58 27 -52 30 -230 159 -230 167 0 4 5 12 11 18 8 8 32
-4 87 -44 43 -31 100 -67 128 -81z m780 -107 c-26 -19 -42 -19 -26 0 7 8 20
15 29 15 13 -1 13 -3 -3 -15z m-496 -55 c0 -5 -4 -10 -10 -10 -5 0 -10 5 -10
10 0 6 5 10 10 10 6 0 10 -4 10 -10z m364 -71 c-18 -17 -39 -29 -49 -27 -14 2
-9 9 21 30 53 36 65 34 28 -3z"/>
<path d="M2561 3267 c-6 -6 -11 -19 -11 -29 0 -14 8 -18 40 -18 l41 0 -18 25
c-22 30 -37 37 -52 22z"/>
<path d="M2899 2642 c-8 -11 -83 -48 -166 -82 -84 -35 -150 -67 -147 -71 10
-18 58 -8 152 30 54 21 136 50 185 65 48 15 87 31 87 37 0 9 -30 24 -74 35
-16 4 -27 -1 -37 -14z"/>
<path d="M3044 2549 c-4 -7 0 -16 9 -21 9 -5 14 -15 11 -23 -5 -11 1 -15 19
-15 36 0 41 15 16 45 -24 27 -44 32 -55 14z"/>
<path d="M2976 2502 c-3 -5 -22 -13 -42 -17 -45 -8 -104 -36 -104 -48 0 -13
118 -2 153 14 15 7 27 16 27 21 0 4 7 8 16 8 9 0 14 6 12 13 -5 15 -54 22 -62
9z"/>
<path d="M3019 2435 c-48 -12 -94 -30 -106 -42 -11 -11 -38 -23 -60 -26 -22
-4 -51 -16 -64 -27 l-24 -21 43 6 c34 6 42 4 42 -9 0 -9 2 -16 5 -16 2 0 46
27 97 61 62 41 99 59 112 55 20 -5 56 18 56 36 0 10 4 11 -101 -17z"/>
<path d="M2617 2824 c-27 -29 -45 -54 -40 -54 17 0 90 69 96 90 8 31 -4 24
-56 -36z"/>
<path d="M1676 2587 c-53 -51 -69 -77 -46 -77 31 0 146 102 135 120 -12 20
-33 10 -89 -43z"/>
<path d="M1501 2466 c-13 -14 -33 -26 -45 -28 -15 -2 -22 -11 -24 -30 -2 -16
0 -28 4 -28 15 0 115 83 111 93 -6 20 -23 17 -46 -7z"/>
<path d="M1670 2475 c-9 -11 -10 -19 -3 -26 7 -7 14 -5 23 6 9 11 10 19 3 26
-7 7 -14 5 -23 -6z"/>
<path d="M1520 2377 c-25 -24 -54 -48 -64 -54 -12 -7 -17 -16 -13 -27 6 -16 9
-16 38 1 44 25 108 94 102 110 -8 19 -14 16 -63 -30z"/>
<path d="M1338 2341 c-34 -34 -50 -71 -30 -71 4 0 31 21 61 47 47 41 51 48 35
54 -27 11 -25 11 -66 -30z"/>
<path d="M1580 2341 c0 -5 -9 -13 -20 -16 -19 -6 -27 -34 -14 -48 9 -8 74 45
74 61 0 6 -9 12 -20 12 -11 0 -20 -4 -20 -9z"/>
<path d="M1568 2247 c-60 -55 -71 -77 -39 -77 20 0 51 25 51 41 0 5 18 20 41
34 39 25 47 48 18 52 -8 1 -40 -21 -71 -50z"/>
<path d="M1365 2254 c-22 -24 -25 -44 -6 -44 11 0 71 52 71 61 0 19 -42 8 -65
-17z"/>
<path d="M1447 2235 c-10 -14 -24 -25 -32 -25 -15 0 -32 -46 -22 -57 9 -8 108
79 104 91 -7 20 -32 16 -50 -9z"/>
<path d="M1644 2203 c-23 -24 -32 -53 -17 -53 11 0 73 50 73 59 0 22 -33 19
-56 -6z"/>
<path d="M1453 2144 c-18 -14 -33 -32 -33 -40 0 -19 7 -18 45 6 33 21 49 43
38 54 -10 10 -16 7 -50 -20z"/>
<path d="M1678 2147 c-29 -23 -35 -41 -18 -52 9 -6 70 51 70 66 0 16 -24 9
-52 -14z"/>
<path d="M1540 2120 c-11 -11 -20 -25 -20 -30 0 -6 -11 -15 -25 -20 -24 -9
-32 -29 -19 -43 9 -8 114 74 114 89 0 22 -30 24 -50 4z"/>
<path d="M1723 2081 c-22 -11 -33 -23 -33 -38 0 -20 3 -21 29 -12 38 13 55 34
44 52 -7 12 -13 12 -40 -2z"/>
<path d="M1601 2071 c-28 -18 -101 -85 -101 -93 0 -22 47 -4 82 32 22 22 44
40 49 40 5 0 9 7 9 15 0 17 -18 19 -39 6z"/>
<path d="M1780 2032 c-30 -10 -119 -94 -114 -107 8 -20 34 -8 94 45 36 32 52
52 45 58 -5 5 -17 7 -25 4z"/>
<path d="M1615 1997 c-12 -12 -33 -32 -48 -44 -49 -41 -27 -58 30 -23 37 22
68 64 58 80 -9 15 -18 12 -40 -13z"/>
<path d="M1788 1949 c-16 -11 -28 -29 -28 -40 0 -21 11 -24 27 -8 6 6 22 17
35 23 26 13 31 39 8 43 -8 2 -27 -7 -42 -18z"/>
<path d="M1598 1894 c-28 -15 -39 -54 -16 -54 19 0 88 52 82 61 -8 13 -35 10
-66 -7z"/>
<path d="M1670 1844 c-36 -33 -54 -74 -31 -74 11 0 101 80 101 90 0 24 -34 16
-70 -16z"/>
<path d="M3670 3136 c0 -2 10 -35 22 -72 20 -61 23 -65 26 -37 4 38 13 42 79
36 l52 -5 27 -81 27 -80 -39 -33 c-45 -38 -60 -41 -87 -16 -19 16 -19 16 -12
-8 23 -80 50 -150 58 -150 4 0 6 8 2 18 -8 27 15 52 189 202 86 74 156 137
156 141 0 8 -29 12 -225 29 -215 19 -226 21 -246 41 -18 18 -29 24 -29 15z
m339 -148 c-86 -77 -84 -77 -108 -6 -12 34 -21 64 -21 68 0 3 41 1 92 -4 l91
-9 -54 -49z"/>
<path d="M4180 3010 c0 -9 130 -63 137 -56 3 2 -1 17 -9 33 -12 26 -18 28 -71
29 -31 1 -57 -2 -57 -6z"/>
<path d="M4088 2654 c-17 -9 -50 -52 -84 -110 -59 -101 -84 -121 -128 -104
-32 12 -46 39 -46 88 0 49 29 88 84 112 l41 19 -79 0 c-67 1 -77 -1 -67 -13 9
-11 9 -28 0 -73 -16 -75 -6 -125 32 -162 37 -37 86 -48 125 -28 40 21 56 40
107 132 51 92 81 117 121 96 39 -21 50 -65 27 -115 -17 -40 -39 -57 -101 -79
-8 -3 23 -6 70 -6 75 0 83 1 66 14 -16 12 -17 18 -7 46 24 71 7 150 -41 183
-28 20 -84 20 -120 0z"/>
<path d="M1135 1737 c5 -20 -6 -30 -99 -86 -89 -54 -108 -62 -121 -51 -30 25
-23 4 31 -85 31 -52 60 -90 69 -89 55 3 65 5 65 15 0 5 -5 7 -11 4 -21 -14
-67 17 -90 60 -13 24 -21 46 -19 48 7 6 151 92 178 106 20 11 27 10 43 -5 27
-24 24 -12 -12 51 -33 59 -43 68 -34 32z"/>
<path d="M3755 1700 c4 -6 -7 -23 -24 -39 -25 -23 -31 -37 -31 -68 0 -79 58
-93 166 -40 l66 32 18 -22 c22 -27 17 -53 -16 -84 -18 -17 -31 -21 -59 -16
-19 3 -35 4 -35 1 0 -5 77 -54 85 -54 4 0 3 5 -1 11 -3 6 5 23 19 37 53 57 60
96 24 138 -31 35 -61 34 -141 -7 -52 -27 -70 -31 -84 -23 -24 16 -27 52 -5 76
14 16 27 19 60 15 24 -2 43 -2 43 2 0 6 -74 51 -85 51 -3 0 -3 -5 0 -10z"/>
<path d="M1250 1545 c16 -19 9 -28 -77 -108 -67 -64 -73 -72 -73 -109 0 -55
60 -118 112 -118 40 0 63 15 142 89 l59 55 24 -28 c21 -25 24 -36 21 -104 l-3
-77 -65 -17 c-36 -10 -80 -16 -97 -14 -18 3 -33 4 -33 2 0 -1 21 -18 46 -36
41 -29 45 -30 39 -11 -7 22 14 35 78 48 27 5 27 5 27 -46 0 -43 -3 -53 -21
-59 -20 -8 -17 -11 27 -44 48 -36 68 -42 45 -14 -8 10 -11 43 -9 97 l3 83 60
18 c33 10 74 16 90 13 l30 -5 -35 30 c-39 33 -52 37 -44 15 6 -15 -12 -25 -69
-39 l-28 -7 3 48 c2 39 6 48 21 47 25 -2 21 11 -10 31 -16 10 -52 43 -81 74
-39 40 -52 50 -47 33 8 -27 -17 -58 -98 -123 -57 -46 -84 -48 -126 -13 -54 45
-35 88 81 186 44 37 52 40 70 29 28 -18 19 0 -24 48 -35 38 -66 59 -38 26z"/>
<path d="M3635 1335 c36 -69 65 -137 65 -152 l0 -27 30 29 c36 34 37 42 8 41
-14 -1 -27 9 -37 25 -14 25 -13 29 13 64 35 45 48 51 86 35 23 -10 29 -17 25
-31 -9 -29 -1 -23 40 26 35 44 36 46 12 40 -16 -4 -71 8 -154 34 -72 23 -135
41 -142 41 -6 0 18 -56 54 -125z m68 49 c34 -8 34 -14 0 -54 l-27 -32 -22 43
c-29 56 -29 63 -1 55 12 -4 34 -9 50 -12z"/>
<path d="M3435 1309 c-106 -91 -101 -83 -75 -116 l23 -28 -7 26 c-6 27 15 64
39 71 6 2 40 -31 75 -72 35 -41 70 -83 78 -92 12 -14 12 -20 2 -33 -29 -35 0
-23 42 17 24 24 40 40 34 36 -5 -5 -15 -8 -22 -8 -10 0 -156 169 -161 187 -1
5 9 16 23 27 21 15 30 16 50 7 13 -6 24 -7 24 -2 0 11 -34 41 -46 40 -5 0 -40
-27 -79 -60z"/>
<path d="M3263 1177 c-57 -35 -66 -47 -29 -40 20 4 32 -8 89 -98 62 -96 65
-104 50 -121 -25 -28 -7 -22 50 18 41 28 47 35 27 32 -22 -3 -33 9 -87 92 -65
97 -72 117 -51 138 19 19 7 14 -49 -21z"/>
<path d="M3045 1059 c-70 -30 -112 -58 -68 -45 25 8 24 10 85 -119 43 -92 45
-101 31 -117 -22 -24 -11 -23 47 7 50 26 67 42 30 30 -15 -5 -24 3 -44 44 -37
72 -19 80 68 29 66 -39 70 -40 107 -28 41 14 55 34 16 25 -14 -4 -43 5 -82 26
-33 17 -62 33 -64 35 -1 1 4 13 13 26 24 34 20 73 -10 97 -34 27 -45 26 -129
-10z m98 -30 c16 -23 17 -30 6 -50 -12 -23 -38 -48 -50 -49 -3 0 -16 23 -29
51 -24 50 -24 51 -5 65 27 20 54 14 78 -17z"/>
<path d="M1823 1069 c24 -14 22 -22 -22 -140 -32 -84 -43 -105 -62 -110 -28
-7 -36 -2 91 -51 90 -34 91 -34 118 -5 31 33 27 41 -8 20 -26 -15 -35 -16 -77
-5 -27 7 -51 16 -55 20 -9 9 26 105 40 110 6 2 26 -4 46 -12 26 -11 36 -21 37
-38 0 -18 4 -15 19 17 24 53 24 59 -1 41 -18 -12 -25 -12 -57 1 -21 8 -38 16
-40 18 -3 3 36 95 41 95 2 0 24 -7 49 -16 44 -15 64 -36 53 -54 -3 -5 -1 -11
4 -14 9 -6 28 52 19 58 -1 2 -46 19 -98 39 -94 36 -132 46 -97 26z"/>
<path d="M2805 979 c-60 -16 -123 -29 -140 -29 -28 -1 -29 -2 -12 -15 18 -13
18 -17 -8 -102 -15 -48 -30 -92 -35 -96 -4 -5 -29 33 -55 84 -46 89 -47 93
-29 107 17 13 15 14 -21 8 -22 -3 -51 -6 -65 -7 -24 0 -24 -1 -3 -9 13 -6 45
-54 88 -134 36 -69 70 -128 75 -131 4 -2 27 55 50 128 45 140 62 170 94 165
22 -3 31 -24 67 -156 22 -81 22 -83 3 -98 -13 -10 -14 -14 -4 -11 8 2 56 14
107 27 90 23 91 24 98 58 8 44 1 51 -17 15 -14 -29 -46 -49 -96 -59 -28 -6
-30 -4 -41 42 -17 69 -17 68 28 81 38 11 42 10 57 -10 15 -21 16 -21 9 18 -9
50 -24 81 -25 48 0 -16 -11 -25 -45 -37 -35 -11 -47 -12 -50 -3 -14 41 -24 92
-19 96 3 3 26 11 52 18 44 11 48 10 65 -9 23 -27 31 -18 16 16 -15 31 -7 31
-144 -5z"/>
<path d="M2040 964 c-14 -35 -7 -55 9 -26 7 13 21 22 36 22 52 0 53 -2 32
-113 -24 -127 -33 -151 -52 -143 -8 3 -15 2 -15 -3 0 -5 19 -11 43 -14 24 -3
52 -9 62 -12 19 -6 19 -6 3 8 -10 8 -18 27 -18 43 1 36 35 203 44 211 12 12
60 -12 72 -35 11 -23 12 -23 16 8 3 17 2 32 -1 34 -3 2 -44 11 -91 20 -47 9
-95 19 -108 22 -17 3 -25 -2 -32 -22z"/>
</g>
</svg>
